<mxfile host="Electron" modified="2024-01-01T16:49:38.921Z" agent="Mozilla/5.0 (Windows NT 10.0; Win64; x64) AppleWebKit/537.36 (KHTML, like Gecko) draw.io/22.1.16 Chrome/120.0.6099.109 Electron/28.1.0 Safari/537.36" etag="5IdJDpojwMYtJYLIxV8Z" version="22.1.16" type="device">
  <diagram name="第 1 页" id="Ekt9Hvva9RF_QwkYAWAY">
    <mxGraphModel dx="1418" dy="686" grid="0" gridSize="10" guides="1" tooltips="1" connect="1" arrows="1" fold="1" page="0" pageScale="1" pageWidth="827" pageHeight="1169" math="0" shadow="0">
      <root>
        <mxCell id="0" />
        <mxCell id="1" parent="0" />
        <mxCell id="48Fj3jTrT95af0H0cncT-1" value="用户" style="rounded=0;whiteSpace=wrap;html=1;" vertex="1" parent="1">
          <mxGeometry x="340" y="150" width="67" height="40" as="geometry" />
        </mxCell>
        <mxCell id="48Fj3jTrT95af0H0cncT-2" value="用户名" style="ellipse;whiteSpace=wrap;html=1;" vertex="1" parent="1">
          <mxGeometry x="388" y="50" width="60" height="40" as="geometry" />
        </mxCell>
        <mxCell id="48Fj3jTrT95af0H0cncT-3" value="ID" style="ellipse;whiteSpace=wrap;html=1;" vertex="1" parent="1">
          <mxGeometry x="460" y="70" width="60" height="40" as="geometry" />
        </mxCell>
        <mxCell id="48Fj3jTrT95af0H0cncT-4" value="电话" style="ellipse;whiteSpace=wrap;html=1;" vertex="1" parent="1">
          <mxGeometry x="312" y="50" width="59" height="40" as="geometry" />
        </mxCell>
        <mxCell id="48Fj3jTrT95af0H0cncT-5" value="密码" style="ellipse;whiteSpace=wrap;html=1;" vertex="1" parent="1">
          <mxGeometry x="490" y="120" width="60" height="40" as="geometry" />
        </mxCell>
        <mxCell id="48Fj3jTrT95af0H0cncT-6" value="身份" style="ellipse;whiteSpace=wrap;html=1;" vertex="1" parent="1">
          <mxGeometry x="200" y="120" width="60" height="40" as="geometry" />
        </mxCell>
        <mxCell id="48Fj3jTrT95af0H0cncT-7" value="性别" style="ellipse;whiteSpace=wrap;html=1;" vertex="1" parent="1">
          <mxGeometry x="243" y="70" width="57" height="40" as="geometry" />
        </mxCell>
        <mxCell id="48Fj3jTrT95af0H0cncT-15" value="一般用户" style="rounded=0;whiteSpace=wrap;html=1;" vertex="1" parent="1">
          <mxGeometry x="90" y="150" width="60" height="45" as="geometry" />
        </mxCell>
        <mxCell id="48Fj3jTrT95af0H0cncT-16" value="渔业从业者" style="rounded=0;whiteSpace=wrap;html=1;" vertex="1" parent="1">
          <mxGeometry x="625.5" y="500" width="65" height="40" as="geometry" />
        </mxCell>
        <mxCell id="48Fj3jTrT95af0H0cncT-17" value="身份证号" style="ellipse;whiteSpace=wrap;html=1;" vertex="1" parent="1">
          <mxGeometry x="750" y="470" width="59" height="40" as="geometry" />
        </mxCell>
        <mxCell id="48Fj3jTrT95af0H0cncT-18" value="违规状态" style="ellipse;whiteSpace=wrap;html=1;" vertex="1" parent="1">
          <mxGeometry x="700" y="600" width="61" height="38" as="geometry" />
        </mxCell>
        <mxCell id="48Fj3jTrT95af0H0cncT-19" value="真实姓名" style="ellipse;whiteSpace=wrap;html=1;" vertex="1" parent="1">
          <mxGeometry x="686.75" y="440" width="62" height="38" as="geometry" />
        </mxCell>
        <mxCell id="48Fj3jTrT95af0H0cncT-20" value="居住地" style="ellipse;whiteSpace=wrap;html=1;" vertex="1" parent="1">
          <mxGeometry x="752" y="560" width="57" height="34" as="geometry" />
        </mxCell>
        <mxCell id="48Fj3jTrT95af0H0cncT-21" value="从事工作" style="ellipse;whiteSpace=wrap;html=1;" vertex="1" parent="1">
          <mxGeometry x="636" y="580" width="64" height="42" as="geometry" />
        </mxCell>
        <mxCell id="48Fj3jTrT95af0H0cncT-27" value="环境管理人员" style="rounded=0;whiteSpace=wrap;html=1;" vertex="1" parent="1">
          <mxGeometry x="-70" y="543" width="70" height="41" as="geometry" />
        </mxCell>
        <mxCell id="48Fj3jTrT95af0H0cncT-28" value="工号" style="ellipse;whiteSpace=wrap;html=1;" vertex="1" parent="1">
          <mxGeometry x="-125" y="490" width="60" height="38" as="geometry" />
        </mxCell>
        <mxCell id="48Fj3jTrT95af0H0cncT-29" value="管理区域" style="ellipse;whiteSpace=wrap;html=1;" vertex="1" parent="1">
          <mxGeometry x="-170" y="543" width="60" height="41" as="geometry" />
        </mxCell>
        <mxCell id="48Fj3jTrT95af0H0cncT-30" value="负责内容" style="ellipse;whiteSpace=wrap;html=1;" vertex="1" parent="1">
          <mxGeometry x="-125" y="594" width="60" height="41" as="geometry" />
        </mxCell>
        <mxCell id="48Fj3jTrT95af0H0cncT-34" value="渔业管理人员" style="rounded=0;whiteSpace=wrap;html=1;" vertex="1" parent="1">
          <mxGeometry x="640" y="760" width="70" height="40" as="geometry" />
        </mxCell>
        <mxCell id="48Fj3jTrT95af0H0cncT-35" value="工号" style="ellipse;whiteSpace=wrap;html=1;" vertex="1" parent="1">
          <mxGeometry x="691" y="850" width="61" height="40" as="geometry" />
        </mxCell>
        <mxCell id="48Fj3jTrT95af0H0cncT-36" value="管理区域" style="ellipse;whiteSpace=wrap;html=1;" vertex="1" parent="1">
          <mxGeometry x="734.5" y="730" width="60" height="40" as="geometry" />
        </mxCell>
        <mxCell id="48Fj3jTrT95af0H0cncT-37" value="负责内容" style="ellipse;whiteSpace=wrap;html=1;" vertex="1" parent="1">
          <mxGeometry x="734.5" y="790" width="60" height="40" as="geometry" />
        </mxCell>
        <mxCell id="48Fj3jTrT95af0H0cncT-38" value="管理人员" style="ellipse;whiteSpace=wrap;html=1;" vertex="1" parent="1">
          <mxGeometry x="687.75" y="680" width="61" height="40" as="geometry" />
        </mxCell>
        <mxCell id="48Fj3jTrT95af0H0cncT-43" value="海域" style="rounded=0;whiteSpace=wrap;html=1;" vertex="1" parent="1">
          <mxGeometry x="290" y="390" width="60" height="40" as="geometry" />
        </mxCell>
        <mxCell id="48Fj3jTrT95af0H0cncT-44" value="ID" style="ellipse;whiteSpace=wrap;html=1;" vertex="1" parent="1">
          <mxGeometry x="377.5" y="355" width="60" height="40" as="geometry" />
        </mxCell>
        <mxCell id="48Fj3jTrT95af0H0cncT-51" value="位置" style="ellipse;whiteSpace=wrap;html=1;" vertex="1" parent="1">
          <mxGeometry x="275" y="311" width="60" height="40" as="geometry" />
        </mxCell>
        <mxCell id="48Fj3jTrT95af0H0cncT-52" value="所属" style="ellipse;whiteSpace=wrap;html=1;" vertex="1" parent="1">
          <mxGeometry x="340" y="313" width="60" height="40" as="geometry" />
        </mxCell>
        <mxCell id="48Fj3jTrT95af0H0cncT-53" value="范围" style="ellipse;whiteSpace=wrap;html=1;" vertex="1" parent="1">
          <mxGeometry x="208" y="330" width="60" height="40" as="geometry" />
        </mxCell>
        <mxCell id="48Fj3jTrT95af0H0cncT-54" value="当前辐射程度" style="ellipse;whiteSpace=wrap;html=1;" vertex="1" parent="1">
          <mxGeometry x="184" y="370" width="59" height="40" as="geometry" />
        </mxCell>
        <mxCell id="48Fj3jTrT95af0H0cncT-62" value="水产品" style="rounded=0;whiteSpace=wrap;html=1;" vertex="1" parent="1">
          <mxGeometry x="615" y="241" width="70" height="42" as="geometry" />
        </mxCell>
        <mxCell id="48Fj3jTrT95af0H0cncT-63" value="ID" style="ellipse;whiteSpace=wrap;html=1;" vertex="1" parent="1">
          <mxGeometry x="665" y="93" width="62" height="42" as="geometry" />
        </mxCell>
        <mxCell id="48Fj3jTrT95af0H0cncT-64" value="种类" style="ellipse;whiteSpace=wrap;html=1;" vertex="1" parent="1">
          <mxGeometry x="785" y="163" width="63" height="42" as="geometry" />
        </mxCell>
        <mxCell id="48Fj3jTrT95af0H0cncT-65" value="量" style="ellipse;whiteSpace=wrap;html=1;" vertex="1" parent="1">
          <mxGeometry x="795" y="263" width="63" height="42" as="geometry" />
        </mxCell>
        <mxCell id="48Fj3jTrT95af0H0cncT-66" value="所产水域" style="ellipse;whiteSpace=wrap;html=1;" vertex="1" parent="1">
          <mxGeometry x="739" y="353" width="63" height="42" as="geometry" />
        </mxCell>
        <mxCell id="48Fj3jTrT95af0H0cncT-67" value="保质期" style="ellipse;whiteSpace=wrap;html=1;" vertex="1" parent="1">
          <mxGeometry x="794.5" y="213" width="64" height="42" as="geometry" />
        </mxCell>
        <mxCell id="48Fj3jTrT95af0H0cncT-68" value="质检结果" style="ellipse;whiteSpace=wrap;html=1;" vertex="1" parent="1">
          <mxGeometry x="746.5" y="123" width="63.5" height="42" as="geometry" />
        </mxCell>
        <mxCell id="48Fj3jTrT95af0H0cncT-69" value="产出时间" style="ellipse;whiteSpace=wrap;html=1;" vertex="1" parent="1">
          <mxGeometry x="676" y="370" width="63" height="42" as="geometry" />
        </mxCell>
        <mxCell id="48Fj3jTrT95af0H0cncT-70" value="所属从业者" style="ellipse;whiteSpace=wrap;html=1;" vertex="1" parent="1">
          <mxGeometry x="775" y="311" width="62.5" height="42" as="geometry" />
        </mxCell>
        <mxCell id="48Fj3jTrT95af0H0cncT-80" value="历史辐射程度" style="rounded=0;whiteSpace=wrap;html=1;" vertex="1" parent="1">
          <mxGeometry x="122" y="674" width="72" height="40" as="geometry" />
        </mxCell>
        <mxCell id="48Fj3jTrT95af0H0cncT-81" value="海域" style="ellipse;whiteSpace=wrap;html=1;" vertex="1" parent="1">
          <mxGeometry x="20" y="674" width="62" height="40" as="geometry" />
        </mxCell>
        <mxCell id="48Fj3jTrT95af0H0cncT-82" value="辐射程度" style="ellipse;whiteSpace=wrap;html=1;" vertex="1" parent="1">
          <mxGeometry x="60" y="622" width="60" height="40" as="geometry" />
        </mxCell>
        <mxCell id="48Fj3jTrT95af0H0cncT-83" value="时间" style="ellipse;whiteSpace=wrap;html=1;" vertex="1" parent="1">
          <mxGeometry x="60" y="730" width="60" height="40" as="geometry" />
        </mxCell>
        <mxCell id="48Fj3jTrT95af0H0cncT-87" value="可进行渔业活动" style="rounded=0;whiteSpace=wrap;html=1;" vertex="1" parent="1">
          <mxGeometry x="384.5" y="700" width="67" height="40" as="geometry" />
        </mxCell>
        <mxCell id="48Fj3jTrT95af0H0cncT-88" value="海域" style="ellipse;whiteSpace=wrap;html=1;" vertex="1" parent="1">
          <mxGeometry x="306.5" y="650" width="70" height="40" as="geometry" />
        </mxCell>
        <mxCell id="48Fj3jTrT95af0H0cncT-89" value="活动" style="ellipse;whiteSpace=wrap;html=1;" vertex="1" parent="1">
          <mxGeometry x="312" y="750" width="60" height="40" as="geometry" />
        </mxCell>
        <mxCell id="48Fj3jTrT95af0H0cncT-90" value="时间段" style="ellipse;whiteSpace=wrap;html=1;" vertex="1" parent="1">
          <mxGeometry x="263" y="700" width="62" height="40" as="geometry" />
        </mxCell>
        <mxCell id="48Fj3jTrT95af0H0cncT-94" value="申请" style="rounded=0;whiteSpace=wrap;html=1;" vertex="1" parent="1">
          <mxGeometry x="364.5" y="832" width="73" height="40" as="geometry" />
        </mxCell>
        <mxCell id="48Fj3jTrT95af0H0cncT-95" value="申请人" style="ellipse;whiteSpace=wrap;html=1;" vertex="1" parent="1">
          <mxGeometry x="252" y="960" width="63" height="40" as="geometry" />
        </mxCell>
        <mxCell id="48Fj3jTrT95af0H0cncT-97" value="申请活动" style="ellipse;whiteSpace=wrap;html=1;" vertex="1" parent="1">
          <mxGeometry x="397" y="980" width="63" height="40" as="geometry" />
        </mxCell>
        <mxCell id="48Fj3jTrT95af0H0cncT-98" value="审批时间" style="ellipse;whiteSpace=wrap;html=1;" vertex="1" parent="1">
          <mxGeometry x="192" y="940" width="60" height="40" as="geometry" />
        </mxCell>
        <mxCell id="48Fj3jTrT95af0H0cncT-99" value="申请海域" style="ellipse;whiteSpace=wrap;html=1;" vertex="1" parent="1">
          <mxGeometry x="470" y="970" width="63" height="40" as="geometry" />
        </mxCell>
        <mxCell id="48Fj3jTrT95af0H0cncT-100" value="审批状态" style="ellipse;whiteSpace=wrap;html=1;" vertex="1" parent="1">
          <mxGeometry x="604.5" y="930" width="60" height="40" as="geometry" />
        </mxCell>
        <mxCell id="48Fj3jTrT95af0H0cncT-101" value="申请时间" style="ellipse;whiteSpace=wrap;html=1;" vertex="1" parent="1">
          <mxGeometry x="540" y="960" width="64.5" height="40" as="geometry" />
        </mxCell>
        <mxCell id="48Fj3jTrT95af0H0cncT-102" value="审批人" style="ellipse;whiteSpace=wrap;html=1;" vertex="1" parent="1">
          <mxGeometry x="132" y="912" width="60" height="40" as="geometry" />
        </mxCell>
        <mxCell id="48Fj3jTrT95af0H0cncT-103" value="ID" style="ellipse;whiteSpace=wrap;html=1;" vertex="1" parent="1">
          <mxGeometry x="325" y="970" width="63" height="40" as="geometry" />
        </mxCell>
        <mxCell id="48Fj3jTrT95af0H0cncT-114" value="公示信息" style="rounded=0;whiteSpace=wrap;html=1;" vertex="1" parent="1">
          <mxGeometry x="93" y="320" width="67" height="40" as="geometry" />
        </mxCell>
        <mxCell id="48Fj3jTrT95af0H0cncT-115" value="ID" style="ellipse;whiteSpace=wrap;html=1;" vertex="1" parent="1">
          <mxGeometry x="10" y="250" width="60" height="40" as="geometry" />
        </mxCell>
        <mxCell id="48Fj3jTrT95af0H0cncT-116" value="公示内容" style="ellipse;whiteSpace=wrap;html=1;" vertex="1" parent="1">
          <mxGeometry x="10" y="400" width="60" height="40" as="geometry" />
        </mxCell>
        <mxCell id="48Fj3jTrT95af0H0cncT-117" value="负责人" style="ellipse;whiteSpace=wrap;html=1;" vertex="1" parent="1">
          <mxGeometry x="-20" y="300" width="60" height="40" as="geometry" />
        </mxCell>
        <mxCell id="48Fj3jTrT95af0H0cncT-118" value="公示时间" style="ellipse;whiteSpace=wrap;html=1;" vertex="1" parent="1">
          <mxGeometry x="-20" y="350" width="60" height="40" as="geometry" />
        </mxCell>
        <mxCell id="48Fj3jTrT95af0H0cncT-124" value="检索查看" style="rhombus;whiteSpace=wrap;html=1;" vertex="1" parent="1">
          <mxGeometry x="185" y="230" width="90" height="50" as="geometry" />
        </mxCell>
        <mxCell id="48Fj3jTrT95af0H0cncT-132" value="" style="endArrow=classic;html=1;rounded=0;exitX=0;exitY=0.5;exitDx=0;exitDy=0;" edge="1" parent="1" source="48Fj3jTrT95af0H0cncT-124">
          <mxGeometry relative="1" as="geometry">
            <mxPoint x="30" y="320" as="sourcePoint" />
            <mxPoint x="130" y="320" as="targetPoint" />
            <Array as="points">
              <mxPoint x="130" y="255" />
            </Array>
          </mxGeometry>
        </mxCell>
        <mxCell id="48Fj3jTrT95af0H0cncT-133" value="m" style="edgeLabel;resizable=0;html=1;align=center;verticalAlign=middle;" connectable="0" vertex="1" parent="48Fj3jTrT95af0H0cncT-132">
          <mxGeometry relative="1" as="geometry">
            <mxPoint x="1" y="20" as="offset" />
          </mxGeometry>
        </mxCell>
        <mxCell id="48Fj3jTrT95af0H0cncT-135" value="" style="endArrow=none;html=1;rounded=0;" edge="1" parent="1">
          <mxGeometry width="50" height="50" relative="1" as="geometry">
            <mxPoint x="480" y="100" as="sourcePoint" />
            <mxPoint x="500" y="100" as="targetPoint" />
          </mxGeometry>
        </mxCell>
        <mxCell id="48Fj3jTrT95af0H0cncT-136" value="" style="endArrow=none;html=1;rounded=0;" edge="1" parent="1">
          <mxGeometry width="50" height="50" relative="1" as="geometry">
            <mxPoint x="30" y="280" as="sourcePoint" />
            <mxPoint x="50" y="280" as="targetPoint" />
          </mxGeometry>
        </mxCell>
        <mxCell id="48Fj3jTrT95af0H0cncT-137" value="" style="endArrow=none;html=1;rounded=0;exitX=0.5;exitY=0;exitDx=0;exitDy=0;" edge="1" parent="1" source="48Fj3jTrT95af0H0cncT-1">
          <mxGeometry width="50" height="50" relative="1" as="geometry">
            <mxPoint x="370" y="140" as="sourcePoint" />
            <mxPoint x="420" y="90" as="targetPoint" />
          </mxGeometry>
        </mxCell>
        <mxCell id="48Fj3jTrT95af0H0cncT-138" value="" style="endArrow=none;html=1;rounded=0;exitX=0.645;exitY=0.006;exitDx=0;exitDy=0;exitPerimeter=0;" edge="1" parent="1" source="48Fj3jTrT95af0H0cncT-1">
          <mxGeometry width="50" height="50" relative="1" as="geometry">
            <mxPoint x="440" y="160" as="sourcePoint" />
            <mxPoint x="490" y="110" as="targetPoint" />
          </mxGeometry>
        </mxCell>
        <mxCell id="48Fj3jTrT95af0H0cncT-139" value="" style="endArrow=none;html=1;rounded=0;exitX=1;exitY=0.25;exitDx=0;exitDy=0;" edge="1" parent="1" source="48Fj3jTrT95af0H0cncT-1">
          <mxGeometry width="50" height="50" relative="1" as="geometry">
            <mxPoint x="440" y="190" as="sourcePoint" />
            <mxPoint x="490" y="140" as="targetPoint" />
          </mxGeometry>
        </mxCell>
        <mxCell id="48Fj3jTrT95af0H0cncT-140" value="" style="endArrow=none;html=1;rounded=0;" edge="1" parent="1" source="48Fj3jTrT95af0H0cncT-1">
          <mxGeometry width="50" height="50" relative="1" as="geometry">
            <mxPoint x="290" y="140" as="sourcePoint" />
            <mxPoint x="340" y="90" as="targetPoint" />
          </mxGeometry>
        </mxCell>
        <mxCell id="48Fj3jTrT95af0H0cncT-141" value="" style="endArrow=none;html=1;rounded=0;" edge="1" parent="1">
          <mxGeometry width="50" height="50" relative="1" as="geometry">
            <mxPoint x="350" y="150" as="sourcePoint" />
            <mxPoint x="280" y="110" as="targetPoint" />
          </mxGeometry>
        </mxCell>
        <mxCell id="48Fj3jTrT95af0H0cncT-142" value="" style="endArrow=none;html=1;rounded=0;entryX=0;entryY=0.25;entryDx=0;entryDy=0;" edge="1" parent="1" target="48Fj3jTrT95af0H0cncT-1">
          <mxGeometry width="50" height="50" relative="1" as="geometry">
            <mxPoint x="260" y="140" as="sourcePoint" />
            <mxPoint x="310" y="90" as="targetPoint" />
          </mxGeometry>
        </mxCell>
        <mxCell id="48Fj3jTrT95af0H0cncT-143" value="" style="endArrow=none;html=1;rounded=0;entryX=0.25;entryY=0;entryDx=0;entryDy=0;" edge="1" parent="1" target="48Fj3jTrT95af0H0cncT-114">
          <mxGeometry width="50" height="50" relative="1" as="geometry">
            <mxPoint x="70" y="270" as="sourcePoint" />
            <mxPoint x="120" y="220" as="targetPoint" />
          </mxGeometry>
        </mxCell>
        <mxCell id="48Fj3jTrT95af0H0cncT-144" value="" style="endArrow=none;html=1;rounded=0;exitX=1;exitY=0.5;exitDx=0;exitDy=0;entryX=0;entryY=0.5;entryDx=0;entryDy=0;" edge="1" parent="1" source="48Fj3jTrT95af0H0cncT-117" target="48Fj3jTrT95af0H0cncT-114">
          <mxGeometry width="50" height="50" relative="1" as="geometry">
            <mxPoint x="40" y="380" as="sourcePoint" />
            <mxPoint x="90" y="330" as="targetPoint" />
          </mxGeometry>
        </mxCell>
        <mxCell id="48Fj3jTrT95af0H0cncT-145" value="" style="endArrow=none;html=1;rounded=0;entryX=0;entryY=0.75;entryDx=0;entryDy=0;" edge="1" parent="1" target="48Fj3jTrT95af0H0cncT-114">
          <mxGeometry width="50" height="50" relative="1" as="geometry">
            <mxPoint x="40" y="370" as="sourcePoint" />
            <mxPoint x="90" y="350" as="targetPoint" />
          </mxGeometry>
        </mxCell>
        <mxCell id="48Fj3jTrT95af0H0cncT-146" value="" style="endArrow=none;html=1;rounded=0;entryX=0.25;entryY=1;entryDx=0;entryDy=0;" edge="1" parent="1" target="48Fj3jTrT95af0H0cncT-114">
          <mxGeometry width="50" height="50" relative="1" as="geometry">
            <mxPoint x="70" y="420" as="sourcePoint" />
            <mxPoint x="120" y="370" as="targetPoint" />
          </mxGeometry>
        </mxCell>
        <mxCell id="48Fj3jTrT95af0H0cncT-148" value="" style="endArrow=none;html=1;rounded=0;" edge="1" parent="1">
          <mxGeometry width="50" height="50" relative="1" as="geometry">
            <mxPoint x="686" y="119.99999999999999" as="sourcePoint" />
            <mxPoint x="706" y="119.99999999999999" as="targetPoint" />
          </mxGeometry>
        </mxCell>
        <mxCell id="48Fj3jTrT95af0H0cncT-149" value="" style="endArrow=none;html=1;rounded=0;exitX=0.686;exitY=-0.011;exitDx=0;exitDy=0;exitPerimeter=0;" edge="1" parent="1" source="48Fj3jTrT95af0H0cncT-62">
          <mxGeometry width="50" height="50" relative="1" as="geometry">
            <mxPoint x="645" y="185" as="sourcePoint" />
            <mxPoint x="695" y="135" as="targetPoint" />
          </mxGeometry>
        </mxCell>
        <mxCell id="48Fj3jTrT95af0H0cncT-150" value="" style="endArrow=none;html=1;rounded=0;" edge="1" parent="1">
          <mxGeometry width="50" height="50" relative="1" as="geometry">
            <mxPoint x="676.5" y="241" as="sourcePoint" />
            <mxPoint x="746.5" y="141" as="targetPoint" />
          </mxGeometry>
        </mxCell>
        <mxCell id="48Fj3jTrT95af0H0cncT-151" value="" style="endArrow=none;html=1;rounded=0;exitX=1;exitY=0.25;exitDx=0;exitDy=0;" edge="1" parent="1" source="48Fj3jTrT95af0H0cncT-62">
          <mxGeometry width="50" height="50" relative="1" as="geometry">
            <mxPoint x="735" y="233" as="sourcePoint" />
            <mxPoint x="785" y="183" as="targetPoint" />
          </mxGeometry>
        </mxCell>
        <mxCell id="48Fj3jTrT95af0H0cncT-152" value="" style="endArrow=none;html=1;rounded=0;exitX=1;exitY=0.5;exitDx=0;exitDy=0;" edge="1" parent="1" source="48Fj3jTrT95af0H0cncT-62">
          <mxGeometry width="50" height="50" relative="1" as="geometry">
            <mxPoint x="745" y="283" as="sourcePoint" />
            <mxPoint x="795" y="233" as="targetPoint" />
          </mxGeometry>
        </mxCell>
        <mxCell id="48Fj3jTrT95af0H0cncT-153" value="" style="endArrow=none;html=1;rounded=0;exitX=1;exitY=0.75;exitDx=0;exitDy=0;" edge="1" parent="1" source="48Fj3jTrT95af0H0cncT-62">
          <mxGeometry width="50" height="50" relative="1" as="geometry">
            <mxPoint x="745" y="333" as="sourcePoint" />
            <mxPoint x="795" y="283" as="targetPoint" />
          </mxGeometry>
        </mxCell>
        <mxCell id="48Fj3jTrT95af0H0cncT-154" value="" style="endArrow=none;html=1;rounded=0;" edge="1" parent="1">
          <mxGeometry width="50" height="50" relative="1" as="geometry">
            <mxPoint x="675" y="283" as="sourcePoint" />
            <mxPoint x="775" y="333" as="targetPoint" />
          </mxGeometry>
        </mxCell>
        <mxCell id="48Fj3jTrT95af0H0cncT-155" value="" style="endArrow=none;html=1;rounded=0;exitX=0.714;exitY=1;exitDx=0;exitDy=0;exitPerimeter=0;entryX=0;entryY=0.5;entryDx=0;entryDy=0;" edge="1" parent="1" source="48Fj3jTrT95af0H0cncT-62" target="48Fj3jTrT95af0H0cncT-66">
          <mxGeometry width="50" height="50" relative="1" as="geometry">
            <mxPoint x="669" y="423" as="sourcePoint" />
            <mxPoint x="738" y="369" as="targetPoint" />
          </mxGeometry>
        </mxCell>
        <mxCell id="48Fj3jTrT95af0H0cncT-156" value="" style="endArrow=none;html=1;rounded=0;exitX=0.557;exitY=0.986;exitDx=0;exitDy=0;exitPerimeter=0;entryX=0.5;entryY=0;entryDx=0;entryDy=0;" edge="1" parent="1" source="48Fj3jTrT95af0H0cncT-62" target="48Fj3jTrT95af0H0cncT-69">
          <mxGeometry width="50" height="50" relative="1" as="geometry">
            <mxPoint x="560" y="500" as="sourcePoint" />
            <mxPoint x="610" y="450" as="targetPoint" />
          </mxGeometry>
        </mxCell>
        <mxCell id="48Fj3jTrT95af0H0cncT-157" value="举报" style="rhombus;whiteSpace=wrap;html=1;" vertex="1" parent="1">
          <mxGeometry x="483" y="243" width="82" height="40" as="geometry" />
        </mxCell>
        <mxCell id="48Fj3jTrT95af0H0cncT-160" value="" style="endArrow=classic;html=1;rounded=0;" edge="1" parent="1">
          <mxGeometry relative="1" as="geometry">
            <mxPoint x="565" y="263" as="sourcePoint" />
            <mxPoint x="615" y="263" as="targetPoint" />
          </mxGeometry>
        </mxCell>
        <mxCell id="48Fj3jTrT95af0H0cncT-161" value="m" style="edgeLabel;resizable=0;html=1;align=center;verticalAlign=middle;" connectable="0" vertex="1" parent="48Fj3jTrT95af0H0cncT-160">
          <mxGeometry relative="1" as="geometry" />
        </mxCell>
        <mxCell id="48Fj3jTrT95af0H0cncT-163" value="派生" style="endArrow=block;endSize=16;endFill=0;html=1;rounded=0;entryX=1;entryY=0.5;entryDx=0;entryDy=0;" edge="1" parent="1" target="48Fj3jTrT95af0H0cncT-16">
          <mxGeometry width="160" relative="1" as="geometry">
            <mxPoint x="407" y="183.74" as="sourcePoint" />
            <mxPoint x="567" y="183.74" as="targetPoint" />
            <Array as="points">
              <mxPoint x="560" y="184" />
              <mxPoint x="560" y="70" />
              <mxPoint x="800" y="70" />
              <mxPoint x="840" y="70" />
              <mxPoint x="880" y="70" />
              <mxPoint x="880" y="520" />
            </Array>
          </mxGeometry>
        </mxCell>
        <mxCell id="48Fj3jTrT95af0H0cncT-165" value="" style="endArrow=none;html=1;rounded=0;entryX=0;entryY=0.5;entryDx=0;entryDy=0;" edge="1" parent="1" target="48Fj3jTrT95af0H0cncT-19">
          <mxGeometry width="50" height="50" relative="1" as="geometry">
            <mxPoint x="660" y="500" as="sourcePoint" />
            <mxPoint x="710" y="450" as="targetPoint" />
          </mxGeometry>
        </mxCell>
        <mxCell id="48Fj3jTrT95af0H0cncT-166" value="" style="endArrow=none;html=1;rounded=0;entryX=0;entryY=0.5;entryDx=0;entryDy=0;" edge="1" parent="1" target="48Fj3jTrT95af0H0cncT-17">
          <mxGeometry width="50" height="50" relative="1" as="geometry">
            <mxPoint x="680" y="500" as="sourcePoint" />
            <mxPoint x="750" y="500" as="targetPoint" />
          </mxGeometry>
        </mxCell>
        <mxCell id="48Fj3jTrT95af0H0cncT-167" value="" style="endArrow=none;html=1;rounded=0;exitX=0;exitY=0.5;exitDx=0;exitDy=0;" edge="1" parent="1" source="48Fj3jTrT95af0H0cncT-20">
          <mxGeometry width="50" height="50" relative="1" as="geometry">
            <mxPoint x="630" y="590" as="sourcePoint" />
            <mxPoint x="680" y="540" as="targetPoint" />
          </mxGeometry>
        </mxCell>
        <mxCell id="48Fj3jTrT95af0H0cncT-168" value="" style="endArrow=none;html=1;rounded=0;exitX=0.5;exitY=0;exitDx=0;exitDy=0;" edge="1" parent="1" source="48Fj3jTrT95af0H0cncT-18">
          <mxGeometry width="50" height="50" relative="1" as="geometry">
            <mxPoint x="620" y="590" as="sourcePoint" />
            <mxPoint x="670" y="540" as="targetPoint" />
          </mxGeometry>
        </mxCell>
        <mxCell id="48Fj3jTrT95af0H0cncT-169" value="" style="endArrow=none;html=1;rounded=0;exitX=0.5;exitY=0;exitDx=0;exitDy=0;" edge="1" parent="1" source="48Fj3jTrT95af0H0cncT-21">
          <mxGeometry width="50" height="50" relative="1" as="geometry">
            <mxPoint x="610" y="590" as="sourcePoint" />
            <mxPoint x="660" y="540" as="targetPoint" />
          </mxGeometry>
        </mxCell>
        <mxCell id="48Fj3jTrT95af0H0cncT-170" value="举报" style="rhombus;whiteSpace=wrap;html=1;" vertex="1" parent="1">
          <mxGeometry x="490" y="500" width="80" height="40" as="geometry" />
        </mxCell>
        <mxCell id="48Fj3jTrT95af0H0cncT-173" value="" style="endArrow=classic;html=1;rounded=0;entryX=0;entryY=0.5;entryDx=0;entryDy=0;" edge="1" parent="1" source="48Fj3jTrT95af0H0cncT-170" target="48Fj3jTrT95af0H0cncT-16">
          <mxGeometry width="50" height="50" relative="1" as="geometry">
            <mxPoint x="570" y="570" as="sourcePoint" />
            <mxPoint x="610" y="520" as="targetPoint" />
          </mxGeometry>
        </mxCell>
        <mxCell id="48Fj3jTrT95af0H0cncT-174" value="m" style="edgeLabel;html=1;align=center;verticalAlign=middle;resizable=0;points=[];" vertex="1" connectable="0" parent="48Fj3jTrT95af0H0cncT-173">
          <mxGeometry x="-0.0432" y="-1" relative="1" as="geometry">
            <mxPoint as="offset" />
          </mxGeometry>
        </mxCell>
        <mxCell id="48Fj3jTrT95af0H0cncT-180" value="" style="endArrow=block;endSize=16;endFill=0;html=1;rounded=0;entryX=1.017;entryY=0.663;entryDx=0;entryDy=0;exitX=0;exitY=0.75;exitDx=0;exitDy=0;entryPerimeter=0;" edge="1" parent="1" source="48Fj3jTrT95af0H0cncT-1" target="48Fj3jTrT95af0H0cncT-15">
          <mxGeometry width="160" relative="1" as="geometry">
            <mxPoint x="280" y="180" as="sourcePoint" />
            <mxPoint x="440" y="180" as="targetPoint" />
          </mxGeometry>
        </mxCell>
        <mxCell id="48Fj3jTrT95af0H0cncT-181" value="派生" style="edgeLabel;html=1;align=center;verticalAlign=middle;resizable=0;points=[];" vertex="1" connectable="0" parent="48Fj3jTrT95af0H0cncT-180">
          <mxGeometry x="-0.0522" relative="1" as="geometry">
            <mxPoint as="offset" />
          </mxGeometry>
        </mxCell>
        <mxCell id="48Fj3jTrT95af0H0cncT-183" value="" style="endArrow=none;html=1;rounded=0;exitX=1;exitY=0.5;exitDx=0;exitDy=0;" edge="1" parent="1" source="48Fj3jTrT95af0H0cncT-124">
          <mxGeometry width="50" height="50" relative="1" as="geometry">
            <mxPoint x="300" y="250" as="sourcePoint" />
            <mxPoint x="350" y="190" as="targetPoint" />
            <Array as="points">
              <mxPoint x="350" y="255" />
            </Array>
          </mxGeometry>
        </mxCell>
        <mxCell id="48Fj3jTrT95af0H0cncT-184" value="n" style="edgeLabel;html=1;align=center;verticalAlign=middle;resizable=0;points=[];" vertex="1" connectable="0" parent="48Fj3jTrT95af0H0cncT-183">
          <mxGeometry x="-0.3286" y="1" relative="1" as="geometry">
            <mxPoint as="offset" />
          </mxGeometry>
        </mxCell>
        <mxCell id="48Fj3jTrT95af0H0cncT-185" value="" style="endArrow=none;html=1;rounded=0;exitX=0.873;exitY=1.01;exitDx=0;exitDy=0;exitPerimeter=0;entryX=0;entryY=0.5;entryDx=0;entryDy=0;" edge="1" parent="1" source="48Fj3jTrT95af0H0cncT-1" target="48Fj3jTrT95af0H0cncT-170">
          <mxGeometry width="50" height="50" relative="1" as="geometry">
            <mxPoint x="388" y="219.29" as="sourcePoint" />
            <mxPoint x="388" y="290" as="targetPoint" />
            <Array as="points">
              <mxPoint x="460" y="190" />
              <mxPoint x="460" y="340" />
              <mxPoint x="490" y="340" />
            </Array>
          </mxGeometry>
        </mxCell>
        <mxCell id="48Fj3jTrT95af0H0cncT-186" value="n" style="edgeLabel;html=1;align=center;verticalAlign=middle;resizable=0;points=[];" vertex="1" connectable="0" parent="48Fj3jTrT95af0H0cncT-185">
          <mxGeometry x="0.0436" y="-1" relative="1" as="geometry">
            <mxPoint as="offset" />
          </mxGeometry>
        </mxCell>
        <mxCell id="48Fj3jTrT95af0H0cncT-187" value="" style="endArrow=none;html=1;rounded=0;exitX=0.934;exitY=0.99;exitDx=0;exitDy=0;exitPerimeter=0;entryX=0;entryY=0.5;entryDx=0;entryDy=0;" edge="1" parent="1" source="48Fj3jTrT95af0H0cncT-1" target="48Fj3jTrT95af0H0cncT-157">
          <mxGeometry width="50" height="50" relative="1" as="geometry">
            <mxPoint x="410" y="280" as="sourcePoint" />
            <mxPoint x="460" y="230" as="targetPoint" />
            <Array as="points">
              <mxPoint x="403" y="263" />
            </Array>
          </mxGeometry>
        </mxCell>
        <mxCell id="48Fj3jTrT95af0H0cncT-188" value="n" style="edgeLabel;html=1;align=center;verticalAlign=middle;resizable=0;points=[];" vertex="1" connectable="0" parent="48Fj3jTrT95af0H0cncT-187">
          <mxGeometry x="0.3934" y="1" relative="1" as="geometry">
            <mxPoint as="offset" />
          </mxGeometry>
        </mxCell>
        <mxCell id="48Fj3jTrT95af0H0cncT-189" value="" style="endArrow=none;html=1;rounded=0;exitX=0.25;exitY=0;exitDx=0;exitDy=0;" edge="1" parent="1" source="48Fj3jTrT95af0H0cncT-27" target="48Fj3jTrT95af0H0cncT-28">
          <mxGeometry width="50" height="50" relative="1" as="geometry">
            <mxPoint x="-20" y="520" as="sourcePoint" />
            <mxPoint x="30" y="470" as="targetPoint" />
          </mxGeometry>
        </mxCell>
        <mxCell id="48Fj3jTrT95af0H0cncT-190" value="" style="endArrow=none;html=1;rounded=0;exitX=1;exitY=0.5;exitDx=0;exitDy=0;entryX=0;entryY=0.5;entryDx=0;entryDy=0;" edge="1" parent="1" source="48Fj3jTrT95af0H0cncT-29" target="48Fj3jTrT95af0H0cncT-27">
          <mxGeometry width="50" height="50" relative="1" as="geometry">
            <mxPoint x="-90" y="570" as="sourcePoint" />
            <mxPoint x="-40" y="520" as="targetPoint" />
          </mxGeometry>
        </mxCell>
        <mxCell id="48Fj3jTrT95af0H0cncT-191" value="" style="endArrow=none;html=1;rounded=0;exitX=1;exitY=0;exitDx=0;exitDy=0;entryX=0.5;entryY=1;entryDx=0;entryDy=0;" edge="1" parent="1" source="48Fj3jTrT95af0H0cncT-30" target="48Fj3jTrT95af0H0cncT-27">
          <mxGeometry width="50" height="50" relative="1" as="geometry">
            <mxPoint x="-30" y="650" as="sourcePoint" />
            <mxPoint x="-20" y="600" as="targetPoint" />
          </mxGeometry>
        </mxCell>
        <mxCell id="48Fj3jTrT95af0H0cncT-193" value="" style="endArrow=block;endSize=16;endFill=0;html=1;rounded=0;exitX=0;exitY=1;exitDx=0;exitDy=0;entryX=0.351;entryY=-0.029;entryDx=0;entryDy=0;entryPerimeter=0;" edge="1" parent="1" source="48Fj3jTrT95af0H0cncT-1" target="48Fj3jTrT95af0H0cncT-27">
          <mxGeometry width="160" relative="1" as="geometry">
            <mxPoint x="200" y="340" as="sourcePoint" />
            <mxPoint x="360" y="340" as="targetPoint" />
            <Array as="points">
              <mxPoint x="340" y="210" />
              <mxPoint x="-45" y="210" />
            </Array>
          </mxGeometry>
        </mxCell>
        <mxCell id="48Fj3jTrT95af0H0cncT-194" value="派生" style="edgeLabel;html=1;align=center;verticalAlign=middle;resizable=0;points=[];" vertex="1" connectable="0" parent="48Fj3jTrT95af0H0cncT-193">
          <mxGeometry x="0.3025" relative="1" as="geometry">
            <mxPoint as="offset" />
          </mxGeometry>
        </mxCell>
        <mxCell id="48Fj3jTrT95af0H0cncT-195" value="" style="endArrow=none;html=1;rounded=0;entryX=0.296;entryY=0.969;entryDx=0;entryDy=0;entryPerimeter=0;exitX=0.5;exitY=0;exitDx=0;exitDy=0;" edge="1" parent="1" source="48Fj3jTrT95af0H0cncT-34" target="48Fj3jTrT95af0H0cncT-38">
          <mxGeometry width="50" height="50" relative="1" as="geometry">
            <mxPoint x="640" y="770" as="sourcePoint" />
            <mxPoint x="690" y="720" as="targetPoint" />
          </mxGeometry>
        </mxCell>
        <mxCell id="48Fj3jTrT95af0H0cncT-196" value="" style="endArrow=none;html=1;rounded=0;entryX=0;entryY=0.5;entryDx=0;entryDy=0;exitX=1;exitY=0.25;exitDx=0;exitDy=0;" edge="1" parent="1" source="48Fj3jTrT95af0H0cncT-34" target="48Fj3jTrT95af0H0cncT-36">
          <mxGeometry width="50" height="50" relative="1" as="geometry">
            <mxPoint x="810" y="760" as="sourcePoint" />
            <mxPoint x="860" y="710" as="targetPoint" />
          </mxGeometry>
        </mxCell>
        <mxCell id="48Fj3jTrT95af0H0cncT-197" value="" style="endArrow=none;html=1;rounded=0;entryX=1;entryY=0.75;entryDx=0;entryDy=0;exitX=0;exitY=0.5;exitDx=0;exitDy=0;" edge="1" parent="1" source="48Fj3jTrT95af0H0cncT-37" target="48Fj3jTrT95af0H0cncT-34">
          <mxGeometry width="50" height="50" relative="1" as="geometry">
            <mxPoint x="830" y="830" as="sourcePoint" />
            <mxPoint x="880" y="780" as="targetPoint" />
          </mxGeometry>
        </mxCell>
        <mxCell id="48Fj3jTrT95af0H0cncT-198" value="" style="endArrow=none;html=1;rounded=0;entryX=0.407;entryY=1.017;entryDx=0;entryDy=0;entryPerimeter=0;exitX=0;exitY=0;exitDx=0;exitDy=0;" edge="1" parent="1" source="48Fj3jTrT95af0H0cncT-35" target="48Fj3jTrT95af0H0cncT-34">
          <mxGeometry width="50" height="50" relative="1" as="geometry">
            <mxPoint x="600" y="880" as="sourcePoint" />
            <mxPoint x="650" y="830" as="targetPoint" />
          </mxGeometry>
        </mxCell>
        <mxCell id="48Fj3jTrT95af0H0cncT-199" value="" style="endArrow=block;endSize=16;endFill=0;html=1;rounded=0;entryX=1;entryY=0.5;entryDx=0;entryDy=0;" edge="1" parent="1" target="48Fj3jTrT95af0H0cncT-34">
          <mxGeometry width="160" relative="1" as="geometry">
            <mxPoint x="407" y="172.21" as="sourcePoint" />
            <mxPoint x="610" y="360" as="targetPoint" />
            <Array as="points">
              <mxPoint x="580" y="172" />
              <mxPoint x="580" y="50" />
              <mxPoint x="800" y="50" />
              <mxPoint x="900" y="50" />
              <mxPoint x="900" y="780" />
            </Array>
          </mxGeometry>
        </mxCell>
        <mxCell id="48Fj3jTrT95af0H0cncT-200" value="派生" style="edgeLabel;html=1;align=center;verticalAlign=middle;resizable=0;points=[];" vertex="1" connectable="0" parent="48Fj3jTrT95af0H0cncT-199">
          <mxGeometry x="0.517" y="-1" relative="1" as="geometry">
            <mxPoint as="offset" />
          </mxGeometry>
        </mxCell>
        <mxCell id="48Fj3jTrT95af0H0cncT-202" value="" style="endArrow=none;html=1;rounded=0;entryX=0;entryY=0.5;entryDx=0;entryDy=0;" edge="1" parent="1" target="48Fj3jTrT95af0H0cncT-43">
          <mxGeometry width="50" height="50" relative="1" as="geometry">
            <mxPoint x="240" y="400" as="sourcePoint" />
            <mxPoint x="280" y="430" as="targetPoint" />
          </mxGeometry>
        </mxCell>
        <mxCell id="48Fj3jTrT95af0H0cncT-203" value="" style="endArrow=none;html=1;rounded=0;entryX=0;entryY=0.25;entryDx=0;entryDy=0;exitX=1;exitY=1;exitDx=0;exitDy=0;" edge="1" parent="1" source="48Fj3jTrT95af0H0cncT-53" target="48Fj3jTrT95af0H0cncT-43">
          <mxGeometry width="50" height="50" relative="1" as="geometry">
            <mxPoint x="200" y="490" as="sourcePoint" />
            <mxPoint x="250" y="440" as="targetPoint" />
          </mxGeometry>
        </mxCell>
        <mxCell id="48Fj3jTrT95af0H0cncT-204" value="" style="endArrow=none;html=1;rounded=0;entryX=0.5;entryY=1;entryDx=0;entryDy=0;" edge="1" parent="1" source="48Fj3jTrT95af0H0cncT-43" target="48Fj3jTrT95af0H0cncT-51">
          <mxGeometry width="50" height="50" relative="1" as="geometry">
            <mxPoint x="270" y="410" as="sourcePoint" />
            <mxPoint x="320" y="360" as="targetPoint" />
          </mxGeometry>
        </mxCell>
        <mxCell id="48Fj3jTrT95af0H0cncT-205" value="" style="endArrow=none;html=1;rounded=0;entryX=0.4;entryY=0.958;entryDx=0;entryDy=0;entryPerimeter=0;exitX=0.75;exitY=0;exitDx=0;exitDy=0;" edge="1" parent="1" source="48Fj3jTrT95af0H0cncT-43" target="48Fj3jTrT95af0H0cncT-52">
          <mxGeometry width="50" height="50" relative="1" as="geometry">
            <mxPoint x="190" y="510" as="sourcePoint" />
            <mxPoint x="240" y="460" as="targetPoint" />
          </mxGeometry>
        </mxCell>
        <mxCell id="48Fj3jTrT95af0H0cncT-206" value="" style="endArrow=none;html=1;rounded=0;entryX=0;entryY=1;entryDx=0;entryDy=0;exitX=1;exitY=0.5;exitDx=0;exitDy=0;" edge="1" parent="1" source="48Fj3jTrT95af0H0cncT-43" target="48Fj3jTrT95af0H0cncT-44">
          <mxGeometry width="50" height="50" relative="1" as="geometry">
            <mxPoint x="290" y="540" as="sourcePoint" />
            <mxPoint x="340" y="490" as="targetPoint" />
          </mxGeometry>
        </mxCell>
        <mxCell id="48Fj3jTrT95af0H0cncT-207" value="" style="endArrow=none;html=1;rounded=0;entryX=0;entryY=0.75;entryDx=0;entryDy=0;" edge="1" parent="1" target="48Fj3jTrT95af0H0cncT-94">
          <mxGeometry width="50" height="50" relative="1" as="geometry">
            <mxPoint x="190" y="920" as="sourcePoint" />
            <mxPoint x="280" y="850" as="targetPoint" />
          </mxGeometry>
        </mxCell>
        <mxCell id="48Fj3jTrT95af0H0cncT-208" value="" style="endArrow=none;html=1;rounded=0;entryX=0.092;entryY=1.004;entryDx=0;entryDy=0;entryPerimeter=0;exitX=1;exitY=0;exitDx=0;exitDy=0;" edge="1" parent="1" source="48Fj3jTrT95af0H0cncT-98" target="48Fj3jTrT95af0H0cncT-94">
          <mxGeometry width="50" height="50" relative="1" as="geometry">
            <mxPoint x="310" y="940" as="sourcePoint" />
            <mxPoint x="360" y="890" as="targetPoint" />
          </mxGeometry>
        </mxCell>
        <mxCell id="48Fj3jTrT95af0H0cncT-209" value="" style="endArrow=none;html=1;rounded=0;entryX=0.25;entryY=1;entryDx=0;entryDy=0;exitX=0.697;exitY=0.051;exitDx=0;exitDy=0;exitPerimeter=0;" edge="1" parent="1" source="48Fj3jTrT95af0H0cncT-95" target="48Fj3jTrT95af0H0cncT-94">
          <mxGeometry width="50" height="50" relative="1" as="geometry">
            <mxPoint x="320" y="950" as="sourcePoint" />
            <mxPoint x="370" y="900" as="targetPoint" />
          </mxGeometry>
        </mxCell>
        <mxCell id="48Fj3jTrT95af0H0cncT-210" value="" style="endArrow=none;html=1;rounded=0;exitX=0.5;exitY=0;exitDx=0;exitDy=0;entryX=0.391;entryY=1.004;entryDx=0;entryDy=0;entryPerimeter=0;" edge="1" parent="1" source="48Fj3jTrT95af0H0cncT-103" target="48Fj3jTrT95af0H0cncT-94">
          <mxGeometry width="50" height="50" relative="1" as="geometry">
            <mxPoint x="370" y="950" as="sourcePoint" />
            <mxPoint x="390" y="870" as="targetPoint" />
          </mxGeometry>
        </mxCell>
        <mxCell id="48Fj3jTrT95af0H0cncT-211" value="" style="endArrow=none;html=1;rounded=0;entryX=0.5;entryY=1;entryDx=0;entryDy=0;exitX=0.5;exitY=0;exitDx=0;exitDy=0;" edge="1" parent="1" source="48Fj3jTrT95af0H0cncT-97" target="48Fj3jTrT95af0H0cncT-94">
          <mxGeometry width="50" height="50" relative="1" as="geometry">
            <mxPoint x="377.5" y="940" as="sourcePoint" />
            <mxPoint x="427.5" y="890" as="targetPoint" />
          </mxGeometry>
        </mxCell>
        <mxCell id="48Fj3jTrT95af0H0cncT-212" value="" style="endArrow=none;html=1;rounded=0;entryX=0.5;entryY=0;entryDx=0;entryDy=0;exitX=0.621;exitY=1.008;exitDx=0;exitDy=0;exitPerimeter=0;" edge="1" parent="1" source="48Fj3jTrT95af0H0cncT-94" target="48Fj3jTrT95af0H0cncT-99">
          <mxGeometry width="50" height="50" relative="1" as="geometry">
            <mxPoint x="410" y="870" as="sourcePoint" />
            <mxPoint x="510" y="880" as="targetPoint" />
          </mxGeometry>
        </mxCell>
        <mxCell id="48Fj3jTrT95af0H0cncT-213" value="" style="endArrow=none;html=1;rounded=0;entryX=0.312;entryY=0.02;entryDx=0;entryDy=0;entryPerimeter=0;exitX=0.75;exitY=1;exitDx=0;exitDy=0;" edge="1" parent="1" source="48Fj3jTrT95af0H0cncT-94" target="48Fj3jTrT95af0H0cncT-101">
          <mxGeometry width="50" height="50" relative="1" as="geometry">
            <mxPoint x="510" y="920" as="sourcePoint" />
            <mxPoint x="560" y="870" as="targetPoint" />
          </mxGeometry>
        </mxCell>
        <mxCell id="48Fj3jTrT95af0H0cncT-214" value="" style="endArrow=none;html=1;rounded=0;entryX=0;entryY=0;entryDx=0;entryDy=0;exitX=1;exitY=0.75;exitDx=0;exitDy=0;" edge="1" parent="1" source="48Fj3jTrT95af0H0cncT-94" target="48Fj3jTrT95af0H0cncT-100">
          <mxGeometry width="50" height="50" relative="1" as="geometry">
            <mxPoint x="520" y="910" as="sourcePoint" />
            <mxPoint x="570" y="860" as="targetPoint" />
          </mxGeometry>
        </mxCell>
        <mxCell id="48Fj3jTrT95af0H0cncT-215" value="" style="endArrow=none;html=1;rounded=0;entryX=0.405;entryY=0.005;entryDx=0;entryDy=0;entryPerimeter=0;exitX=0.943;exitY=0.737;exitDx=0;exitDy=0;exitPerimeter=0;" edge="1" parent="1" source="48Fj3jTrT95af0H0cncT-82" target="48Fj3jTrT95af0H0cncT-80">
          <mxGeometry width="50" height="50" relative="1" as="geometry">
            <mxPoint x="130" y="640" as="sourcePoint" />
            <mxPoint x="180" y="590" as="targetPoint" />
          </mxGeometry>
        </mxCell>
        <mxCell id="48Fj3jTrT95af0H0cncT-216" value="" style="endArrow=none;html=1;rounded=0;exitX=1;exitY=0.5;exitDx=0;exitDy=0;entryX=0;entryY=0.5;entryDx=0;entryDy=0;" edge="1" parent="1" source="48Fj3jTrT95af0H0cncT-81" target="48Fj3jTrT95af0H0cncT-80">
          <mxGeometry width="50" height="50" relative="1" as="geometry">
            <mxPoint x="80" y="710" as="sourcePoint" />
            <mxPoint x="120" y="694" as="targetPoint" />
          </mxGeometry>
        </mxCell>
        <mxCell id="48Fj3jTrT95af0H0cncT-217" value="" style="endArrow=none;html=1;rounded=0;entryX=0.5;entryY=1;entryDx=0;entryDy=0;" edge="1" parent="1" target="48Fj3jTrT95af0H0cncT-80">
          <mxGeometry width="50" height="50" relative="1" as="geometry">
            <mxPoint x="120" y="750" as="sourcePoint" />
            <mxPoint x="150" y="720" as="targetPoint" />
          </mxGeometry>
        </mxCell>
        <mxCell id="48Fj3jTrT95af0H0cncT-218" value="" style="endArrow=none;html=1;rounded=0;entryX=0.5;entryY=0;entryDx=0;entryDy=0;exitX=1;exitY=0.5;exitDx=0;exitDy=0;" edge="1" parent="1" source="48Fj3jTrT95af0H0cncT-88" target="48Fj3jTrT95af0H0cncT-87">
          <mxGeometry width="50" height="50" relative="1" as="geometry">
            <mxPoint x="400" y="660" as="sourcePoint" />
            <mxPoint x="450" y="610" as="targetPoint" />
          </mxGeometry>
        </mxCell>
        <mxCell id="48Fj3jTrT95af0H0cncT-219" value="" style="endArrow=none;html=1;rounded=0;entryX=0;entryY=0.5;entryDx=0;entryDy=0;exitX=1;exitY=0.5;exitDx=0;exitDy=0;" edge="1" parent="1" source="48Fj3jTrT95af0H0cncT-90" target="48Fj3jTrT95af0H0cncT-87">
          <mxGeometry width="50" height="50" relative="1" as="geometry">
            <mxPoint x="320" y="750" as="sourcePoint" />
            <mxPoint x="370" y="700" as="targetPoint" />
          </mxGeometry>
        </mxCell>
        <mxCell id="48Fj3jTrT95af0H0cncT-220" value="" style="endArrow=none;html=1;rounded=0;entryX=0.5;entryY=1;entryDx=0;entryDy=0;exitX=1;exitY=0.5;exitDx=0;exitDy=0;" edge="1" parent="1" source="48Fj3jTrT95af0H0cncT-89" target="48Fj3jTrT95af0H0cncT-87">
          <mxGeometry width="50" height="50" relative="1" as="geometry">
            <mxPoint x="390" y="790" as="sourcePoint" />
            <mxPoint x="440" y="740" as="targetPoint" />
          </mxGeometry>
        </mxCell>
        <mxCell id="48Fj3jTrT95af0H0cncT-221" value="查看" style="rhombus;whiteSpace=wrap;html=1;" vertex="1" parent="1">
          <mxGeometry x="470" y="604" width="110" height="70" as="geometry" />
        </mxCell>
        <mxCell id="48Fj3jTrT95af0H0cncT-223" value="" style="endArrow=none;html=1;rounded=0;exitX=1;exitY=0.5;exitDx=0;exitDy=0;entryX=0;entryY=0.75;entryDx=0;entryDy=0;" edge="1" parent="1" source="48Fj3jTrT95af0H0cncT-221" target="48Fj3jTrT95af0H0cncT-16">
          <mxGeometry width="50" height="50" relative="1" as="geometry">
            <mxPoint x="570" y="620" as="sourcePoint" />
            <mxPoint x="620" y="570" as="targetPoint" />
            <Array as="points">
              <mxPoint x="580" y="530" />
            </Array>
          </mxGeometry>
        </mxCell>
        <mxCell id="48Fj3jTrT95af0H0cncT-224" value="n" style="edgeLabel;html=1;align=center;verticalAlign=middle;resizable=0;points=[];" vertex="1" connectable="0" parent="48Fj3jTrT95af0H0cncT-223">
          <mxGeometry x="-0.2673" relative="1" as="geometry">
            <mxPoint as="offset" />
          </mxGeometry>
        </mxCell>
        <mxCell id="48Fj3jTrT95af0H0cncT-225" value="" style="endArrow=classic;html=1;rounded=0;exitX=0;exitY=0.5;exitDx=0;exitDy=0;entryX=0.679;entryY=-0.025;entryDx=0;entryDy=0;entryPerimeter=0;" edge="1" parent="1" source="48Fj3jTrT95af0H0cncT-221" target="48Fj3jTrT95af0H0cncT-87">
          <mxGeometry width="50" height="50" relative="1" as="geometry">
            <mxPoint x="410" y="610" as="sourcePoint" />
            <mxPoint x="460" y="560" as="targetPoint" />
            <Array as="points">
              <mxPoint x="430" y="639" />
            </Array>
          </mxGeometry>
        </mxCell>
        <mxCell id="48Fj3jTrT95af0H0cncT-226" value="m" style="edgeLabel;html=1;align=center;verticalAlign=middle;resizable=0;points=[];" vertex="1" connectable="0" parent="48Fj3jTrT95af0H0cncT-225">
          <mxGeometry x="0.1981" y="-2" relative="1" as="geometry">
            <mxPoint as="offset" />
          </mxGeometry>
        </mxCell>
        <mxCell id="48Fj3jTrT95af0H0cncT-227" value="发起" style="rhombus;whiteSpace=wrap;html=1;" vertex="1" parent="1">
          <mxGeometry x="485" y="748" width="80" height="42" as="geometry" />
        </mxCell>
        <mxCell id="48Fj3jTrT95af0H0cncT-228" value="" style="endArrow=none;html=1;rounded=0;exitX=1;exitY=0.5;exitDx=0;exitDy=0;entryX=0;entryY=1;entryDx=0;entryDy=0;" edge="1" parent="1" source="48Fj3jTrT95af0H0cncT-227" target="48Fj3jTrT95af0H0cncT-16">
          <mxGeometry width="50" height="50" relative="1" as="geometry">
            <mxPoint x="570" y="770" as="sourcePoint" />
            <mxPoint x="620" y="720" as="targetPoint" />
            <Array as="points">
              <mxPoint x="600" y="770" />
              <mxPoint x="600" y="540" />
            </Array>
          </mxGeometry>
        </mxCell>
        <mxCell id="48Fj3jTrT95af0H0cncT-230" value="1" style="edgeLabel;html=1;align=center;verticalAlign=middle;resizable=0;points=[];" vertex="1" connectable="0" parent="48Fj3jTrT95af0H0cncT-228">
          <mxGeometry x="0.1124" y="-1" relative="1" as="geometry">
            <mxPoint as="offset" />
          </mxGeometry>
        </mxCell>
        <mxCell id="48Fj3jTrT95af0H0cncT-229" value="" style="endArrow=classic;html=1;rounded=0;entryX=0.5;entryY=0;entryDx=0;entryDy=0;exitX=0;exitY=0.5;exitDx=0;exitDy=0;" edge="1" parent="1" source="48Fj3jTrT95af0H0cncT-227" target="48Fj3jTrT95af0H0cncT-94">
          <mxGeometry width="50" height="50" relative="1" as="geometry">
            <mxPoint x="430" y="810" as="sourcePoint" />
            <mxPoint x="480" y="760" as="targetPoint" />
            <Array as="points">
              <mxPoint x="401" y="769" />
            </Array>
          </mxGeometry>
        </mxCell>
        <mxCell id="48Fj3jTrT95af0H0cncT-231" value="n" style="edgeLabel;html=1;align=center;verticalAlign=middle;resizable=0;points=[];" vertex="1" connectable="0" parent="48Fj3jTrT95af0H0cncT-229">
          <mxGeometry x="-0.2899" y="-1" relative="1" as="geometry">
            <mxPoint as="offset" />
          </mxGeometry>
        </mxCell>
        <mxCell id="48Fj3jTrT95af0H0cncT-232" value="审批" style="rhombus;whiteSpace=wrap;html=1;" vertex="1" parent="1">
          <mxGeometry x="532.25" y="830" width="80" height="40" as="geometry" />
        </mxCell>
        <mxCell id="48Fj3jTrT95af0H0cncT-233" value="" style="endArrow=none;html=1;rounded=0;exitX=1;exitY=0.5;exitDx=0;exitDy=0;" edge="1" parent="1" source="48Fj3jTrT95af0H0cncT-232">
          <mxGeometry width="50" height="50" relative="1" as="geometry">
            <mxPoint x="620" y="850" as="sourcePoint" />
            <mxPoint x="640" y="780" as="targetPoint" />
            <Array as="points">
              <mxPoint x="612" y="780" />
            </Array>
          </mxGeometry>
        </mxCell>
        <mxCell id="48Fj3jTrT95af0H0cncT-235" value="1" style="edgeLabel;html=1;align=center;verticalAlign=middle;resizable=0;points=[];" vertex="1" connectable="0" parent="48Fj3jTrT95af0H0cncT-233">
          <mxGeometry x="-0.1736" relative="1" as="geometry">
            <mxPoint as="offset" />
          </mxGeometry>
        </mxCell>
        <mxCell id="48Fj3jTrT95af0H0cncT-234" value="" style="endArrow=classic;html=1;rounded=0;exitX=0;exitY=0.5;exitDx=0;exitDy=0;" edge="1" parent="1" source="48Fj3jTrT95af0H0cncT-232">
          <mxGeometry width="50" height="50" relative="1" as="geometry">
            <mxPoint x="480" y="850" as="sourcePoint" />
            <mxPoint x="440" y="850" as="targetPoint" />
          </mxGeometry>
        </mxCell>
        <mxCell id="48Fj3jTrT95af0H0cncT-236" value="n" style="edgeLabel;html=1;align=center;verticalAlign=middle;resizable=0;points=[];" vertex="1" connectable="0" parent="48Fj3jTrT95af0H0cncT-234">
          <mxGeometry x="-0.3439" y="1" relative="1" as="geometry">
            <mxPoint as="offset" />
          </mxGeometry>
        </mxCell>
        <mxCell id="48Fj3jTrT95af0H0cncT-237" value="生产" style="rhombus;whiteSpace=wrap;html=1;" vertex="1" parent="1">
          <mxGeometry x="550" y="400" width="80" height="44" as="geometry" />
        </mxCell>
        <mxCell id="48Fj3jTrT95af0H0cncT-238" value="" style="endArrow=none;html=1;rounded=0;entryX=0.5;entryY=1;entryDx=0;entryDy=0;" edge="1" parent="1" target="48Fj3jTrT95af0H0cncT-237">
          <mxGeometry width="50" height="50" relative="1" as="geometry">
            <mxPoint x="640" y="500" as="sourcePoint" />
            <mxPoint x="690" y="450" as="targetPoint" />
            <Array as="points">
              <mxPoint x="640" y="444" />
            </Array>
          </mxGeometry>
        </mxCell>
        <mxCell id="48Fj3jTrT95af0H0cncT-240" value="1" style="edgeLabel;html=1;align=center;verticalAlign=middle;resizable=0;points=[];" vertex="1" connectable="0" parent="48Fj3jTrT95af0H0cncT-238">
          <mxGeometry x="-0.4789" y="1" relative="1" as="geometry">
            <mxPoint as="offset" />
          </mxGeometry>
        </mxCell>
        <mxCell id="48Fj3jTrT95af0H0cncT-239" value="" style="endArrow=classic;html=1;rounded=0;exitX=0.5;exitY=0;exitDx=0;exitDy=0;entryX=0.178;entryY=1.01;entryDx=0;entryDy=0;entryPerimeter=0;" edge="1" parent="1" source="48Fj3jTrT95af0H0cncT-237" target="48Fj3jTrT95af0H0cncT-62">
          <mxGeometry width="50" height="50" relative="1" as="geometry">
            <mxPoint x="580" y="353" as="sourcePoint" />
            <mxPoint x="630" y="303" as="targetPoint" />
            <Array as="points">
              <mxPoint x="627" y="400" />
            </Array>
          </mxGeometry>
        </mxCell>
        <mxCell id="48Fj3jTrT95af0H0cncT-241" value="n" style="edgeLabel;html=1;align=center;verticalAlign=middle;resizable=0;points=[];" vertex="1" connectable="0" parent="48Fj3jTrT95af0H0cncT-239">
          <mxGeometry x="0.1764" relative="1" as="geometry">
            <mxPoint as="offset" />
          </mxGeometry>
        </mxCell>
        <mxCell id="48Fj3jTrT95af0H0cncT-242" value="获取和分析" style="rhombus;whiteSpace=wrap;html=1;" vertex="1" parent="1">
          <mxGeometry x="60" y="543.5" width="80" height="40" as="geometry" />
        </mxCell>
        <mxCell id="48Fj3jTrT95af0H0cncT-243" value="" style="endArrow=none;html=1;rounded=0;exitX=1;exitY=0.5;exitDx=0;exitDy=0;entryX=0;entryY=0.5;entryDx=0;entryDy=0;" edge="1" parent="1" source="48Fj3jTrT95af0H0cncT-27" target="48Fj3jTrT95af0H0cncT-242">
          <mxGeometry width="50" height="50" relative="1" as="geometry">
            <mxPoint x="20" y="580" as="sourcePoint" />
            <mxPoint x="70" y="530" as="targetPoint" />
            <Array as="points">
              <mxPoint x="60" y="563" />
            </Array>
          </mxGeometry>
        </mxCell>
        <mxCell id="48Fj3jTrT95af0H0cncT-245" value="n" style="edgeLabel;html=1;align=center;verticalAlign=middle;resizable=0;points=[];" vertex="1" connectable="0" parent="48Fj3jTrT95af0H0cncT-243">
          <mxGeometry x="0.2462" relative="1" as="geometry">
            <mxPoint as="offset" />
          </mxGeometry>
        </mxCell>
        <mxCell id="48Fj3jTrT95af0H0cncT-244" value="" style="endArrow=classic;html=1;rounded=0;exitX=1;exitY=0.5;exitDx=0;exitDy=0;entryX=0;entryY=0.75;entryDx=0;entryDy=0;" edge="1" parent="1" source="48Fj3jTrT95af0H0cncT-242" target="48Fj3jTrT95af0H0cncT-43">
          <mxGeometry width="50" height="50" relative="1" as="geometry">
            <mxPoint x="150" y="480" as="sourcePoint" />
            <mxPoint x="200" y="430" as="targetPoint" />
            <Array as="points">
              <mxPoint x="140" y="420" />
            </Array>
          </mxGeometry>
        </mxCell>
        <mxCell id="48Fj3jTrT95af0H0cncT-246" value="m" style="edgeLabel;html=1;align=center;verticalAlign=middle;resizable=0;points=[];" vertex="1" connectable="0" parent="48Fj3jTrT95af0H0cncT-244">
          <mxGeometry x="0.1544" relative="1" as="geometry">
            <mxPoint as="offset" />
          </mxGeometry>
        </mxCell>
        <mxCell id="48Fj3jTrT95af0H0cncT-247" value="发布和管理" style="rhombus;whiteSpace=wrap;html=1;" vertex="1" parent="1">
          <mxGeometry x="52" y="452" width="80" height="48" as="geometry" />
        </mxCell>
        <mxCell id="48Fj3jTrT95af0H0cncT-249" value="" style="endArrow=none;html=1;rounded=0;entryX=0;entryY=0.5;entryDx=0;entryDy=0;exitX=0.75;exitY=0;exitDx=0;exitDy=0;" edge="1" parent="1" source="48Fj3jTrT95af0H0cncT-27" target="48Fj3jTrT95af0H0cncT-247">
          <mxGeometry width="50" height="50" relative="1" as="geometry">
            <mxPoint x="-10" y="520" as="sourcePoint" />
            <mxPoint x="40" y="470" as="targetPoint" />
            <Array as="points">
              <mxPoint x="-17" y="476" />
            </Array>
          </mxGeometry>
        </mxCell>
        <mxCell id="48Fj3jTrT95af0H0cncT-251" value="1" style="edgeLabel;html=1;align=center;verticalAlign=middle;resizable=0;points=[];" vertex="1" connectable="0" parent="48Fj3jTrT95af0H0cncT-249">
          <mxGeometry x="0.3626" y="2" relative="1" as="geometry">
            <mxPoint as="offset" />
          </mxGeometry>
        </mxCell>
        <mxCell id="48Fj3jTrT95af0H0cncT-250" value="" style="endArrow=classic;html=1;rounded=0;entryX=0.584;entryY=1.025;entryDx=0;entryDy=0;exitX=1;exitY=0.5;exitDx=0;exitDy=0;entryPerimeter=0;" edge="1" parent="1" source="48Fj3jTrT95af0H0cncT-247" target="48Fj3jTrT95af0H0cncT-114">
          <mxGeometry width="50" height="50" relative="1" as="geometry">
            <mxPoint x="90" y="430" as="sourcePoint" />
            <mxPoint x="140" y="380" as="targetPoint" />
          </mxGeometry>
        </mxCell>
        <mxCell id="48Fj3jTrT95af0H0cncT-252" value="n" style="edgeLabel;html=1;align=center;verticalAlign=middle;resizable=0;points=[];" vertex="1" connectable="0" parent="48Fj3jTrT95af0H0cncT-250">
          <mxGeometry x="0.2284" y="1" relative="1" as="geometry">
            <mxPoint as="offset" />
          </mxGeometry>
        </mxCell>
        <mxCell id="48Fj3jTrT95af0H0cncT-253" value="获取和分析" style="rhombus;whiteSpace=wrap;html=1;" vertex="1" parent="1">
          <mxGeometry x="410" y="556" width="80" height="38" as="geometry" />
        </mxCell>
        <mxCell id="48Fj3jTrT95af0H0cncT-254" value="" style="endArrow=none;html=1;rounded=0;exitX=0;exitY=0.25;exitDx=0;exitDy=0;entryX=1;entryY=0.5;entryDx=0;entryDy=0;" edge="1" parent="1" source="48Fj3jTrT95af0H0cncT-34" target="48Fj3jTrT95af0H0cncT-253">
          <mxGeometry width="50" height="50" relative="1" as="geometry">
            <mxPoint x="620" y="740" as="sourcePoint" />
            <mxPoint x="670" y="690" as="targetPoint" />
            <Array as="points">
              <mxPoint x="610" y="770" />
              <mxPoint x="610" y="575" />
            </Array>
          </mxGeometry>
        </mxCell>
        <mxCell id="48Fj3jTrT95af0H0cncT-255" value="n" style="edgeLabel;html=1;align=center;verticalAlign=middle;resizable=0;points=[];" vertex="1" connectable="0" parent="48Fj3jTrT95af0H0cncT-254">
          <mxGeometry x="0.676" y="-2" relative="1" as="geometry">
            <mxPoint as="offset" />
          </mxGeometry>
        </mxCell>
        <mxCell id="48Fj3jTrT95af0H0cncT-256" value="" style="endArrow=classic;html=1;rounded=0;exitX=0;exitY=0.5;exitDx=0;exitDy=0;entryX=1;entryY=0.75;entryDx=0;entryDy=0;" edge="1" parent="1" source="48Fj3jTrT95af0H0cncT-253" target="48Fj3jTrT95af0H0cncT-43">
          <mxGeometry width="50" height="50" relative="1" as="geometry">
            <mxPoint x="390" y="550" as="sourcePoint" />
            <mxPoint x="440" y="500" as="targetPoint" />
            <Array as="points">
              <mxPoint x="410" y="420" />
            </Array>
          </mxGeometry>
        </mxCell>
        <mxCell id="48Fj3jTrT95af0H0cncT-257" value="m" style="edgeLabel;html=1;align=center;verticalAlign=middle;resizable=0;points=[];" vertex="1" connectable="0" parent="48Fj3jTrT95af0H0cncT-256">
          <mxGeometry x="-0.1983" y="1" relative="1" as="geometry">
            <mxPoint as="offset" />
          </mxGeometry>
        </mxCell>
        <mxCell id="48Fj3jTrT95af0H0cncT-258" value="发布" style="rhombus;whiteSpace=wrap;html=1;" vertex="1" parent="1">
          <mxGeometry x="485" y="700" width="80" height="40" as="geometry" />
        </mxCell>
        <mxCell id="48Fj3jTrT95af0H0cncT-259" value="" style="endArrow=none;html=1;rounded=0;exitX=1;exitY=0.5;exitDx=0;exitDy=0;entryX=0.299;entryY=0.022;entryDx=0;entryDy=0;entryPerimeter=0;" edge="1" parent="1" source="48Fj3jTrT95af0H0cncT-258" target="48Fj3jTrT95af0H0cncT-34">
          <mxGeometry width="50" height="50" relative="1" as="geometry">
            <mxPoint x="580" y="720" as="sourcePoint" />
            <mxPoint x="630" y="670" as="targetPoint" />
            <Array as="points">
              <mxPoint x="661" y="720" />
            </Array>
          </mxGeometry>
        </mxCell>
        <mxCell id="48Fj3jTrT95af0H0cncT-261" value="1" style="edgeLabel;html=1;align=center;verticalAlign=middle;resizable=0;points=[];" vertex="1" connectable="0" parent="48Fj3jTrT95af0H0cncT-259">
          <mxGeometry x="0.0103" y="1" relative="1" as="geometry">
            <mxPoint as="offset" />
          </mxGeometry>
        </mxCell>
        <mxCell id="48Fj3jTrT95af0H0cncT-260" value="" style="endArrow=classic;html=1;rounded=0;exitX=0;exitY=0.5;exitDx=0;exitDy=0;entryX=1;entryY=0.5;entryDx=0;entryDy=0;" edge="1" parent="1" source="48Fj3jTrT95af0H0cncT-258" target="48Fj3jTrT95af0H0cncT-87">
          <mxGeometry width="50" height="50" relative="1" as="geometry">
            <mxPoint x="440" y="730" as="sourcePoint" />
            <mxPoint x="490" y="680" as="targetPoint" />
          </mxGeometry>
        </mxCell>
        <mxCell id="48Fj3jTrT95af0H0cncT-262" value="n" style="edgeLabel;html=1;align=center;verticalAlign=middle;resizable=0;points=[];" vertex="1" connectable="0" parent="48Fj3jTrT95af0H0cncT-260">
          <mxGeometry x="0.0235" relative="1" as="geometry">
            <mxPoint as="offset" />
          </mxGeometry>
        </mxCell>
        <mxCell id="48Fj3jTrT95af0H0cncT-263" value="管理" style="rhombus;whiteSpace=wrap;html=1;" vertex="1" parent="1">
          <mxGeometry x="630" y="646" width="80" height="34" as="geometry" />
        </mxCell>
        <mxCell id="48Fj3jTrT95af0H0cncT-264" value="" style="endArrow=none;html=1;rounded=0;exitX=0.413;exitY=-0.004;exitDx=0;exitDy=0;exitPerimeter=0;" edge="1" parent="1" source="48Fj3jTrT95af0H0cncT-34">
          <mxGeometry width="50" height="50" relative="1" as="geometry">
            <mxPoint x="620" y="730" as="sourcePoint" />
            <mxPoint x="670" y="680" as="targetPoint" />
          </mxGeometry>
        </mxCell>
        <mxCell id="48Fj3jTrT95af0H0cncT-266" value="1" style="edgeLabel;html=1;align=center;verticalAlign=middle;resizable=0;points=[];" vertex="1" connectable="0" parent="48Fj3jTrT95af0H0cncT-264">
          <mxGeometry x="0.2028" y="1" relative="1" as="geometry">
            <mxPoint as="offset" />
          </mxGeometry>
        </mxCell>
        <mxCell id="48Fj3jTrT95af0H0cncT-265" value="" style="endArrow=classic;html=1;rounded=0;exitX=0;exitY=0.5;exitDx=0;exitDy=0;entryX=0.08;entryY=1.059;entryDx=0;entryDy=0;entryPerimeter=0;" edge="1" parent="1" source="48Fj3jTrT95af0H0cncT-263" target="48Fj3jTrT95af0H0cncT-16">
          <mxGeometry width="50" height="50" relative="1" as="geometry">
            <mxPoint x="630" y="670" as="sourcePoint" />
            <mxPoint x="680" y="620" as="targetPoint" />
          </mxGeometry>
        </mxCell>
        <mxCell id="48Fj3jTrT95af0H0cncT-267" value="n" style="edgeLabel;html=1;align=center;verticalAlign=middle;resizable=0;points=[];" vertex="1" connectable="0" parent="48Fj3jTrT95af0H0cncT-265">
          <mxGeometry x="-0.0029" y="3" relative="1" as="geometry">
            <mxPoint as="offset" />
          </mxGeometry>
        </mxCell>
        <mxCell id="48Fj3jTrT95af0H0cncT-268" value="登记和管理" style="rhombus;whiteSpace=wrap;html=1;" vertex="1" parent="1">
          <mxGeometry x="930" y="630" width="80" height="44" as="geometry" />
        </mxCell>
        <mxCell id="48Fj3jTrT95af0H0cncT-269" value="" style="endArrow=none;html=1;rounded=0;entryX=0.25;entryY=1;entryDx=0;entryDy=0;exitX=0.5;exitY=1;exitDx=0;exitDy=0;" edge="1" parent="1" source="48Fj3jTrT95af0H0cncT-268" target="48Fj3jTrT95af0H0cncT-34">
          <mxGeometry width="50" height="50" relative="1" as="geometry">
            <mxPoint x="920" y="750" as="sourcePoint" />
            <mxPoint x="660" y="810" as="targetPoint" />
            <Array as="points">
              <mxPoint x="970" y="920" />
              <mxPoint x="658" y="920" />
            </Array>
          </mxGeometry>
        </mxCell>
        <mxCell id="48Fj3jTrT95af0H0cncT-270" value="1" style="edgeLabel;html=1;align=center;verticalAlign=middle;resizable=0;points=[];" vertex="1" connectable="0" parent="48Fj3jTrT95af0H0cncT-269">
          <mxGeometry x="0.0409" y="-1" relative="1" as="geometry">
            <mxPoint as="offset" />
          </mxGeometry>
        </mxCell>
        <mxCell id="48Fj3jTrT95af0H0cncT-271" value="" style="endArrow=classic;html=1;rounded=0;exitX=0.5;exitY=0;exitDx=0;exitDy=0;entryX=1;entryY=0.5;entryDx=0;entryDy=0;" edge="1" parent="1" source="48Fj3jTrT95af0H0cncT-268" target="48Fj3jTrT95af0H0cncT-237">
          <mxGeometry width="50" height="50" relative="1" as="geometry">
            <mxPoint x="960" y="610" as="sourcePoint" />
            <mxPoint x="1010" y="560" as="targetPoint" />
            <Array as="points">
              <mxPoint x="970" y="422" />
            </Array>
          </mxGeometry>
        </mxCell>
        <mxCell id="48Fj3jTrT95af0H0cncT-272" value="n" style="edgeLabel;html=1;align=center;verticalAlign=middle;resizable=0;points=[];" vertex="1" connectable="0" parent="48Fj3jTrT95af0H0cncT-271">
          <mxGeometry x="-0.5049" y="1" relative="1" as="geometry">
            <mxPoint as="offset" />
          </mxGeometry>
        </mxCell>
        <mxCell id="48Fj3jTrT95af0H0cncT-273" value="产出" style="rhombus;whiteSpace=wrap;html=1;" vertex="1" parent="1">
          <mxGeometry x="280" y="490" width="80" height="42" as="geometry" />
        </mxCell>
        <mxCell id="48Fj3jTrT95af0H0cncT-274" value="" style="endArrow=none;html=1;rounded=0;entryX=0.5;entryY=1;entryDx=0;entryDy=0;exitX=0.5;exitY=0;exitDx=0;exitDy=0;" edge="1" parent="1" source="48Fj3jTrT95af0H0cncT-273" target="48Fj3jTrT95af0H0cncT-43">
          <mxGeometry width="50" height="50" relative="1" as="geometry">
            <mxPoint x="260" y="490" as="sourcePoint" />
            <mxPoint x="310" y="440" as="targetPoint" />
          </mxGeometry>
        </mxCell>
        <mxCell id="48Fj3jTrT95af0H0cncT-275" value="1" style="edgeLabel;html=1;align=center;verticalAlign=middle;resizable=0;points=[];" vertex="1" connectable="0" parent="48Fj3jTrT95af0H0cncT-274">
          <mxGeometry x="0.19" y="1" relative="1" as="geometry">
            <mxPoint as="offset" />
          </mxGeometry>
        </mxCell>
        <mxCell id="48Fj3jTrT95af0H0cncT-276" value="" style="endArrow=classic;html=1;rounded=0;entryX=0;entryY=0.75;entryDx=0;entryDy=0;" edge="1" parent="1" target="48Fj3jTrT95af0H0cncT-62">
          <mxGeometry width="50" height="50" relative="1" as="geometry">
            <mxPoint x="360" y="510" as="sourcePoint" />
            <mxPoint x="410" y="460" as="targetPoint" />
            <Array as="points">
              <mxPoint x="470" y="510" />
              <mxPoint x="470" y="350" />
              <mxPoint x="570" y="350" />
              <mxPoint x="570" y="273" />
            </Array>
          </mxGeometry>
        </mxCell>
        <mxCell id="48Fj3jTrT95af0H0cncT-277" value="n" style="edgeLabel;html=1;align=center;verticalAlign=middle;resizable=0;points=[];" vertex="1" connectable="0" parent="48Fj3jTrT95af0H0cncT-276">
          <mxGeometry x="-0.6543" y="2" relative="1" as="geometry">
            <mxPoint as="offset" />
          </mxGeometry>
        </mxCell>
        <mxCell id="48Fj3jTrT95af0H0cncT-278" value="在不同时间拥有" style="rhombus;whiteSpace=wrap;html=1;" vertex="1" parent="1">
          <mxGeometry x="178" y="528" width="98" height="50" as="geometry" />
        </mxCell>
        <mxCell id="48Fj3jTrT95af0H0cncT-279" value="" style="endArrow=none;html=1;rounded=0;entryX=0.25;entryY=1;entryDx=0;entryDy=0;exitX=0.5;exitY=0;exitDx=0;exitDy=0;" edge="1" parent="1" source="48Fj3jTrT95af0H0cncT-278" target="48Fj3jTrT95af0H0cncT-43">
          <mxGeometry width="50" height="50" relative="1" as="geometry">
            <mxPoint x="240" y="490" as="sourcePoint" />
            <mxPoint x="290" y="440" as="targetPoint" />
            <Array as="points">
              <mxPoint x="227" y="470" />
              <mxPoint x="305" y="470" />
            </Array>
          </mxGeometry>
        </mxCell>
        <mxCell id="48Fj3jTrT95af0H0cncT-280" value="1" style="edgeLabel;html=1;align=center;verticalAlign=middle;resizable=0;points=[];" vertex="1" connectable="0" parent="48Fj3jTrT95af0H0cncT-279">
          <mxGeometry x="0.027" y="2" relative="1" as="geometry">
            <mxPoint as="offset" />
          </mxGeometry>
        </mxCell>
        <mxCell id="48Fj3jTrT95af0H0cncT-281" value="" style="endArrow=classic;html=1;rounded=0;exitX=0.5;exitY=1;exitDx=0;exitDy=0;entryX=0.653;entryY=0.013;entryDx=0;entryDy=0;entryPerimeter=0;" edge="1" parent="1" source="48Fj3jTrT95af0H0cncT-278" target="48Fj3jTrT95af0H0cncT-80">
          <mxGeometry width="50" height="50" relative="1" as="geometry">
            <mxPoint x="230" y="650" as="sourcePoint" />
            <mxPoint x="280" y="600" as="targetPoint" />
            <Array as="points">
              <mxPoint x="169" y="578" />
            </Array>
          </mxGeometry>
        </mxCell>
        <mxCell id="48Fj3jTrT95af0H0cncT-282" value="n" style="edgeLabel;html=1;align=center;verticalAlign=middle;resizable=0;points=[];" vertex="1" connectable="0" parent="48Fj3jTrT95af0H0cncT-281">
          <mxGeometry x="0.1856" y="-1" relative="1" as="geometry">
            <mxPoint as="offset" />
          </mxGeometry>
        </mxCell>
        <mxCell id="48Fj3jTrT95af0H0cncT-283" value="可进行" style="rhombus;whiteSpace=wrap;html=1;" vertex="1" parent="1">
          <mxGeometry x="330" y="570" width="80" height="42" as="geometry" />
        </mxCell>
        <mxCell id="48Fj3jTrT95af0H0cncT-284" value="" style="endArrow=none;html=1;rounded=0;entryX=0.843;entryY=1.041;entryDx=0;entryDy=0;entryPerimeter=0;exitX=0.5;exitY=0;exitDx=0;exitDy=0;" edge="1" parent="1" source="48Fj3jTrT95af0H0cncT-283" target="48Fj3jTrT95af0H0cncT-43">
          <mxGeometry width="50" height="50" relative="1" as="geometry">
            <mxPoint x="290" y="490" as="sourcePoint" />
            <mxPoint x="340" y="440" as="targetPoint" />
            <Array as="points">
              <mxPoint x="370" y="460" />
              <mxPoint x="340" y="460" />
            </Array>
          </mxGeometry>
        </mxCell>
        <mxCell id="48Fj3jTrT95af0H0cncT-286" value="1" style="edgeLabel;html=1;align=center;verticalAlign=middle;resizable=0;points=[];" vertex="1" connectable="0" parent="48Fj3jTrT95af0H0cncT-284">
          <mxGeometry x="-0.5595" y="2" relative="1" as="geometry">
            <mxPoint as="offset" />
          </mxGeometry>
        </mxCell>
        <mxCell id="48Fj3jTrT95af0H0cncT-285" value="" style="endArrow=classic;html=1;rounded=0;exitX=0.5;exitY=1;exitDx=0;exitDy=0;entryX=0.377;entryY=-0.031;entryDx=0;entryDy=0;entryPerimeter=0;" edge="1" parent="1" source="48Fj3jTrT95af0H0cncT-283" target="48Fj3jTrT95af0H0cncT-87">
          <mxGeometry width="50" height="50" relative="1" as="geometry">
            <mxPoint x="400" y="650" as="sourcePoint" />
            <mxPoint x="407" y="702" as="targetPoint" />
            <Array as="points">
              <mxPoint x="410" y="612" />
            </Array>
          </mxGeometry>
        </mxCell>
        <mxCell id="48Fj3jTrT95af0H0cncT-287" value="n" style="edgeLabel;html=1;align=center;verticalAlign=middle;resizable=0;points=[];" vertex="1" connectable="0" parent="48Fj3jTrT95af0H0cncT-285">
          <mxGeometry x="0.2115" y="-1" relative="1" as="geometry">
            <mxPoint as="offset" />
          </mxGeometry>
        </mxCell>
        <mxCell id="48Fj3jTrT95af0H0cncT-288" value="" style="endArrow=none;html=1;rounded=0;" edge="1" parent="1">
          <mxGeometry width="50" height="50" relative="1" as="geometry">
            <mxPoint x="346" y="999.52" as="sourcePoint" />
            <mxPoint x="367" y="999.52" as="targetPoint" />
          </mxGeometry>
        </mxCell>
      </root>
    </mxGraphModel>
  </diagram>
</mxfile>
